Coordinates
version=1
nRows=5
nColumns=63
inDegrees=yes

Units are S.I. units (second, meters, Newtons, ...)
If the header above contains a line with 'inDegrees', this indicates whether rotational values are in degrees (yes) or radians (no).

endheader
time	pelvis_tilt	pelvis_list	pelvis_rotation	pelvis_tx	pelvis_ty	pelvis_tz	hip_flexion_r	hip_adduction_r	hip_rotation_r	knee_angle_r	knee_angle_r_beta	ankle_angle_r	subtalar_angle_r	mtp_angle_r	hip_flexion_l	hip_adduction_l	hip_rotation_l	knee_angle_l	knee_angle_l_beta	ankle_angle_l	subtalar_angle_l	mtp_angle_l	L5_S1_Flex_Ext	L5_S1_Lat_Bending	L5_S1_axial_rotation	L4_L5_Flex_Ext	L4_L5_Lat_Bending	L4_L5_axial_rotation	L3_L4_Flex_Ext	L3_L4_Lat_Bending	L3_L4_axial_rotation	L2_L3_Flex_Ext	L2_L3_Lat_Bending	L2_L3_axial_rotation	L1_L2_Flex_Ext	L1_L2_Lat_Bending	L1_L2_axial_rotation	L1_T12_Flex_Ext	L1_T12_Lat_Bending	L1_T12_axial_rotation	Abs_r3	Abs_r2	Abs_r1	Abs_t1	Abs_t2	neck_flexion	neck_bending	neck_rotation	arm_flex_r	arm_add_r	arm_rot_r	elbow_flex_r	pro_sup_r	wrist_flex_r	wrist_dev_r	arm_flex_l	arm_add_l	arm_rot_l	elbow_flex_l	pro_sup_l	wrist_flex_l	wrist_dev_l
      3.20930233	      0.96628122	     -2.27528664	     78.36646333	      0.04287352	      0.83556649	      0.69407191	      4.74030054	     -1.53500597	      9.34208809	     13.05842327	      0.22791248	     35.73669058	     11.02378348	      0.00000000	     -2.33576369	      1.59476164	     -7.41521577	      1.76532534	      0.03081074	     35.57826492	     -3.99713986	      0.00000000	     -0.10538393	      0.37228306	      2.89777140	     -0.19570850	      0.49513647	      3.07888211	     -0.17313526	      0.90516903	      3.07888211	     -0.12044330	      0.90516903	      2.53554997	     -0.09785952	      0.75915961	      2.35443926	     -0.06021638	      0.57666646	      2.17332855	     -0.75274689	      4.21134041	     16.11653517	      0.00000000	      0.00000000	     26.36336745	     -7.14963609	      3.84334391	     -0.74055704	    -16.65685844	     40.98271389	     22.29782649	     72.01057719	    -10.46491602	     -5.86069457	     16.23026649	    -11.62614294	     96.41810025	     23.51832763	     34.94750063	     -4.12303204	    -11.69063841
      3.23255814	      0.99300033	     -2.38263379	     78.43772417	      0.04265555	      0.83547086	      0.69352099	      4.76136696	     -1.53797738	      9.09553939	     12.94773068	      0.22598053	     35.67606538	     11.30622484	      0.00000000	     -2.26340346	      1.55517897	     -7.57453986	      1.78283566	      0.03111635	     35.65568922	     -3.74992704	      0.00000000	     -0.09667152	      0.37870371	      2.79879618	     -0.17952868	      0.50367593	      2.97372094	     -0.15882164	      0.92078020	      2.97372094	     -0.11048588	      0.92078020	      2.44894666	     -0.08976917	      0.77225261	      2.27402190	     -0.05523811	      0.58661205	      2.09909714	     -0.69051499	      4.28397211	     15.56606473	      0.00000000	      0.00000000	     26.57973705	     -7.19396169	      3.99331233	     -0.39433403	    -16.73226827	     41.29370293	     22.30758376	     71.61000121	    -10.35417016	     -5.93484262	     15.80030463	    -11.67806161	     95.27318289	     23.21202286	     35.75956867	     -3.25884212	    -10.82298845
      3.25581395	      0.99437323	     -2.42833046	     78.41883294	      0.04253538	      0.83551969	      0.69278090	      4.73029825	     -1.56755780	      9.01860560	     12.77916001	      0.22303842	     35.74051347	     11.58176025	      0.00000000	     -2.27050708	      1.56524447	     -7.74177349	      1.78053639	      0.03107622	     35.64149744	     -3.66334962	      0.00000000	     -0.09641432	      0.38176674	      2.71383223	     -0.17905104	      0.50774977	      2.88344675	     -0.15839909	      0.92822766	      2.88344675	     -0.11019193	      0.92822766	      2.37460320	     -0.08953034	      0.77849874	      2.20498869	     -0.05509114	      0.59135668	      2.03537417	     -0.68867786	      4.31862174	     15.09352072	      0.00000000	      0.00000000	     26.75342760	     -7.19635218	      4.16285227	     -0.00551137	    -16.78748733	     41.67971922	     22.31938310	     70.91511094	    -10.27750134	     -5.74216180	     15.31981019	    -11.72132362	     93.97678278	     22.84406372	     36.59301187	     -2.09604022	     -9.73976742
      3.27906977	      1.01366076	     -2.41849905	     78.27340336	      0.04246689	      0.83567958	      0.69171172	      4.62971886	     -1.61123309	      8.88101363	     12.55858669	      0.21918869	     35.95829819	     12.19146016	      0.00000000	     -2.40826816	      1.62233807	     -6.69783844	      1.64081287	      0.02863759	     35.20738590	     -5.48741431	      0.00000000	     -0.10025576	      0.38750246	      2.69103541	     -0.18618497	      0.51537827	      2.85922512	     -0.16471019	      0.94217347	      2.85922512	     -0.11458231	      0.94217347	      2.35465598	     -0.09309750	      0.79019501	      2.18646627	     -0.05728614	      0.60024130	      2.01827656	     -0.71611688	      4.38350527	     14.96673163	      0.00000000	      0.00000000	     26.89075736	     -7.37780199	      4.06350143	     -0.03276295	    -16.72578964	     40.29076234	     22.54714573	     70.57120678	     -9.94228853	     -5.20388654	     14.80547874	    -11.71476279	     92.45755306	     22.61648859	     37.87458097	     -1.25100124	     -8.38861415
      3.30232558	      1.15866696	     -2.38175921	     78.51462419	      0.04206326	      0.83602105	      0.69068240	      4.33114305	     -1.50585764	      8.80375863	     12.11733683	      0.21148742	     35.97038359	     12.14882505	      0.00000000	     -2.57603435	      1.48661334	     -6.43931564	      1.47366570	      0.02572032	     35.08698078	     -5.62256917	      0.00000000	     -0.10795161	      0.40412781	      2.59508259	     -0.20047693	      0.53748999	      2.75727525	     -0.17735370	      0.98259637	      2.75727525	     -0.12337789	      0.98259637	      2.27069727	     -0.10024386	      0.82409744	      2.10850461	     -0.06168355	      0.62599398	      1.94631194	     -0.77108754	      4.57157465	     14.43307085	      0.00000000	      0.00000000	     26.95727311	     -7.39242488	      4.08881386	      0.04651445	    -16.72460879	     39.39210862	     22.75469127	     69.71455439	     -9.48910755	     -4.50152689	     14.46461409	    -11.67578028	     92.26758154	     22.41902229	     37.76013025	     -1.03057288	     -7.63970535
